<svg width="24" height="25" viewBox="0 0 24 25" fill="none" xmlns="http://www.w3.org/2000/svg">
<path d="M12 0.5C15.2604 0.5 15.6672 0.512 16.9464 0.572C18.2244 0.632 19.0944 0.8324 19.86 1.13C20.652 1.4348 21.3192 1.8476 21.9864 2.5136C22.5966 3.11348 23.0687 3.83911 23.37 4.64C23.6664 5.4044 23.868 6.2756 23.928 7.5536C23.9844 8.8328 24 9.2396 24 12.5C24 15.7604 23.988 16.1672 23.928 17.4464C23.868 18.7244 23.6664 19.5944 23.37 20.36C23.0696 21.1613 22.5973 21.8871 21.9864 22.4864C21.3864 23.0964 20.6608 23.5685 19.86 23.87C19.0956 24.1664 18.2244 24.368 16.9464 24.428C15.6672 24.4844 15.2604 24.5 12 24.5C8.7396 24.5 8.3328 24.488 7.0536 24.428C5.7756 24.368 4.9056 24.1664 4.14 23.87C3.33879 23.5694 2.61303 23.0971 2.0136 22.4864C1.40329 21.8866 0.931118 21.161 0.63 20.36C0.3324 19.5956 0.132 18.7244 0.0719999 17.4464C0.0155999 16.1672 0 15.7604 0 12.5C0 9.2396 0.0119999 8.8328 0.0719999 7.5536C0.132 6.2744 0.3324 5.4056 0.63 4.64C0.930283 3.83862 1.40256 3.11279 2.0136 2.5136C2.61321 1.90308 3.33891 1.43088 4.14 1.13C4.9056 0.8324 5.7744 0.632 7.0536 0.572C8.3328 0.5156 8.7396 0.5 12 0.5ZM12 6.5C10.4087 6.5 8.88258 7.13214 7.75736 8.25736C6.63214 9.38258 6 10.9087 6 12.5C6 14.0913 6.63214 15.6174 7.75736 16.7426C8.88258 17.8679 10.4087 18.5 12 18.5C13.5913 18.5 15.1174 17.8679 16.2426 16.7426C17.3679 15.6174 18 14.0913 18 12.5C18 10.9087 17.3679 9.38258 16.2426 8.25736C15.1174 7.13214 13.5913 6.5 12 6.5V6.5ZM19.8 6.2C19.8 5.80218 19.642 5.42064 19.3607 5.13934C19.0794 4.85804 18.6978 4.7 18.3 4.7C17.9022 4.7 17.5206 4.85804 17.2393 5.13934C16.958 5.42064 16.8 5.80218 16.8 6.2C16.8 6.59782 16.958 6.97936 17.2393 7.26066C17.5206 7.54197 17.9022 7.7 18.3 7.7C18.6978 7.7 19.0794 7.54197 19.3607 7.26066C19.642 6.97936 19.8 6.59782 19.8 6.2ZM12 8.9C12.9548 8.9 13.8705 9.27928 14.5456 9.95442C15.2207 10.6295 15.6 11.5452 15.6 12.5C15.6 13.4548 15.2207 14.3705 14.5456 15.0456C13.8705 15.7207 12.9548 16.1 12 16.1C11.0452 16.1 10.1295 15.7207 9.45442 15.0456C8.77928 14.3705 8.4 13.4548 8.4 12.5C8.4 11.5452 8.77928 10.6295 9.45442 9.95442C10.1295 9.27928 11.0452 8.9 12 8.9V8.9Z" fill="black"/>
</svg>
