<svg width="44" height="39" viewBox="0 0 44 39" fill="none" xmlns="http://www.w3.org/2000/svg">
<path d="M11.256 19.98L10.332 20.436L15.276 8.016C15.388 7.712 15.524 7.5 15.684 7.38C15.852 7.26 16.076 7.2 16.356 7.2H19.236C19.428 7.2 19.572 7.236 19.668 7.308C19.764 7.38 19.812 7.48 19.812 7.608C19.812 7.72 19.776 7.812 19.704 7.884C19.64 7.956 19.528 8.016 19.368 8.064L18.648 8.232C18.368 8.304 18.18 8.412 18.084 8.556C17.988 8.692 17.952 8.928 17.976 9.264L18.96 22.176C18.976 22.432 19.036 22.616 19.14 22.728C19.244 22.832 19.42 22.916 19.668 22.98L20.364 23.136C20.516 23.176 20.624 23.232 20.688 23.304C20.76 23.376 20.796 23.464 20.796 23.568C20.796 23.696 20.748 23.8 20.652 23.88C20.556 23.96 20.412 24 20.22 24H14.904C14.712 24 14.568 23.964 14.472 23.892C14.376 23.812 14.328 23.712 14.328 23.592C14.328 23.488 14.36 23.4 14.424 23.328C14.488 23.248 14.604 23.184 14.772 23.136L15.468 22.98C15.764 22.9 15.964 22.804 16.068 22.692C16.172 22.58 16.216 22.408 16.2 22.176L15.156 9.132L16.02 9.084L10.764 22.368C10.66 22.648 10.552 22.832 10.44 22.92C10.336 23 10.208 23.04 10.056 23.04C9.952 23.04 9.856 23.024 9.768 22.992C9.68 22.96 9.596 22.896 9.516 22.8C9.444 22.696 9.364 22.544 9.276 22.344L3.948 9.384L4.788 8.94L3.684 21.84C3.66 22.16 3.724 22.4 3.876 22.56C4.036 22.72 4.272 22.856 4.584 22.968L5.328 23.172C5.448 23.22 5.544 23.272 5.616 23.328C5.688 23.384 5.724 23.468 5.724 23.58C5.724 23.7 5.672 23.8 5.568 23.88C5.472 23.96 5.328 24 5.136 24H1.176C0.984 24 0.84 23.964 0.744 23.892C0.648 23.812 0.6 23.712 0.6 23.592C0.6 23.464 0.64 23.368 0.72 23.304C0.808 23.232 0.928 23.172 1.08 23.124L1.692 22.944C1.98 22.856 2.2 22.728 2.352 22.56C2.504 22.392 2.592 22.148 2.616 21.828L3.696 9.336C3.72 9.016 3.672 8.768 3.552 8.592C3.44 8.416 3.244 8.296 2.964 8.232L2.304 8.1C2.128 8.052 2 7.992 1.92 7.92C1.848 7.848 1.812 7.752 1.812 7.632C1.812 7.344 2.012 7.2 2.412 7.2H5.256C5.52 7.2 5.732 7.252 5.892 7.356C6.06 7.452 6.2 7.656 6.312 7.968L11.256 19.98Z" fill="black"/>
<path d="M31.156 22.236C31.156 23.268 30.896 24.164 30.376 24.924C29.864 25.676 29.14 26.26 28.204 26.676C27.276 27.092 26.192 27.3 24.952 27.3C24.104 27.3 23.32 27.212 22.6 27.036C21.888 26.86 21.272 26.608 20.752 26.28L20.896 25.452C21.184 25.644 21.512 25.808 21.88 25.944C22.248 26.072 22.632 26.172 23.032 26.244C23.44 26.316 23.852 26.352 24.268 26.352C25.084 26.352 25.8 26.188 26.416 25.86C27.032 25.524 27.516 25.044 27.868 24.42C28.22 23.788 28.396 23.036 28.396 22.164C28.396 21.148 28.184 20.264 27.76 19.512C27.336 18.752 26.736 18.164 25.96 17.748C25.184 17.324 24.264 17.112 23.2 17.112H21.928V31.356C21.928 31.524 21.976 31.664 22.072 31.776C22.168 31.88 22.312 31.948 22.504 31.98L23.728 32.124C23.896 32.148 24.012 32.2 24.076 32.28C24.148 32.352 24.184 32.456 24.184 32.592C24.184 32.712 24.14 32.812 24.052 32.892C23.972 32.964 23.832 33 23.632 33H17.872C17.688 33 17.548 32.964 17.452 32.892C17.364 32.812 17.32 32.712 17.32 32.592C17.32 32.36 17.464 32.204 17.752 32.124L18.568 31.98C18.76 31.932 18.904 31.86 19 31.764C19.104 31.66 19.156 31.524 19.156 31.356V17.844C19.156 17.676 19.104 17.544 19 17.448C18.904 17.344 18.764 17.268 18.58 17.22L17.752 17.076C17.464 16.996 17.32 16.84 17.32 16.608C17.32 16.48 17.364 16.38 17.452 16.308C17.548 16.236 17.688 16.2 17.872 16.2H23.26C24.916 16.2 26.332 16.46 27.508 16.98C28.684 17.5 29.584 18.216 30.208 19.128C30.84 20.032 31.156 21.068 31.156 22.236Z" fill="black"/>
<path d="M42.78 19.752C42.772 20.296 42.616 20.844 42.312 21.396C42.016 21.94 41.588 22.444 41.028 22.908C40.468 23.364 39.788 23.732 38.988 24.012C38.196 24.292 37.292 24.432 36.276 24.432C34.58 24.432 33.116 24.06 31.884 23.316C30.66 22.564 29.716 21.536 29.052 20.232C28.388 18.92 28.056 17.416 28.056 15.72C28.056 14.424 28.252 13.236 28.644 12.156C29.036 11.076 29.588 10.136 30.3 9.336C31.02 8.536 31.86 7.916 32.82 7.476C33.788 7.036 34.844 6.816 35.988 6.816C36.82 6.816 37.496 6.904 38.016 7.08C38.536 7.248 38.94 7.42 39.228 7.596C39.524 7.764 39.744 7.848 39.888 7.848C40.072 7.848 40.208 7.776 40.296 7.632C40.384 7.48 40.472 7.332 40.56 7.188C40.648 7.036 40.78 6.96 40.956 6.96C41.068 6.96 41.16 6.996 41.232 7.068C41.312 7.132 41.376 7.252 41.424 7.428L42.708 11.52C42.756 11.672 42.744 11.808 42.672 11.928C42.6 12.04 42.488 12.108 42.336 12.132C42.192 12.156 42.064 12.14 41.952 12.084C41.84 12.02 41.748 11.912 41.676 11.76C41.236 10.808 40.744 10.04 40.2 9.456C39.664 8.872 39.072 8.448 38.424 8.184C37.776 7.92 37.064 7.788 36.288 7.788C35.504 7.788 34.78 7.96 34.116 8.304C33.46 8.648 32.888 9.14 32.4 9.78C31.912 10.412 31.532 11.176 31.26 12.072C30.996 12.96 30.864 13.952 30.864 15.048C30.864 16.712 31.136 18.128 31.68 19.296C32.224 20.464 32.964 21.352 33.9 21.96C34.836 22.568 35.9 22.872 37.092 22.872C38.276 22.872 39.284 22.596 40.116 22.044C40.948 21.492 41.576 20.728 42 19.752C42.072 19.6 42.148 19.5 42.228 19.452C42.308 19.396 42.4 19.376 42.504 19.392C42.6 19.408 42.668 19.448 42.708 19.512C42.756 19.568 42.78 19.648 42.78 19.752Z" fill="black"/>
</svg>
