<svg width="24" height="25" viewBox="0 0 24 25" fill="none" xmlns="http://www.w3.org/2000/svg">
<path d="M4.82667 10.8867C6.74667 14.66 9.84 17.7533 13.6133 19.6733L16.5467 16.74C16.92 16.3667 17.44 16.26 17.9067 16.4067C19.4 16.9 21 17.1667 22.6667 17.1667C23.0203 17.1667 23.3594 17.3071 23.6095 17.5572C23.8595 17.8072 24 18.1464 24 18.5V23.1667C24 23.5203 23.8595 23.8594 23.6095 24.1095C23.3594 24.3595 23.0203 24.5 22.6667 24.5C16.6551 24.5 10.8897 22.1119 6.63891 17.8611C2.38809 13.6103 0 7.84491 0 1.83333C0 1.47971 0.140476 1.14057 0.390524 0.890524C0.640573 0.640476 0.979711 0.5 1.33333 0.5H6C6.35362 0.5 6.69276 0.640476 6.94281 0.890524C7.19286 1.14057 7.33333 1.47971 7.33333 1.83333C7.33333 3.5 7.6 5.1 8.09333 6.59333C8.24 7.06 8.13333 7.58 7.76 7.95333L4.82667 10.8867Z" fill="black"/>
</svg>
