<svg width="15" height="14" viewBox="0 0 15 14" fill="none" xmlns="http://www.w3.org/2000/svg">
<path d="M7.50381 13.308C8.45315 13.308 9.32515 13.148 10.1198 12.828C10.9145 12.5133 11.6025 12.068 12.1838 11.492C12.7651 10.916 13.2158 10.236 13.5358 9.452C13.8558 8.668 14.0158 7.80667 14.0158 6.868C14.0158 5.93467 13.8558 5.076 13.5358 4.292C13.2158 3.508 12.7651 2.828 12.1838 2.252C11.6025 1.67067 10.9145 1.22267 10.1198 0.907999C9.32515 0.593333 8.45315 0.436 7.50381 0.436C6.55448 0.436 5.68248 0.593333 4.88781 0.907999C4.09315 1.22267 3.40248 1.67067 2.81581 2.252C2.23448 2.828 1.78381 3.508 1.46381 4.292C1.14915 5.076 0.991813 5.93467 0.991813 6.868C0.991813 7.80133 1.14915 8.66267 1.46381 9.452C1.78381 10.236 2.23448 10.916 2.81581 11.492C3.40248 12.068 4.09315 12.5133 4.88781 12.828C5.68248 13.148 6.55448 13.308 7.50381 13.308ZM7.50381 12.748C6.35181 12.748 5.33581 12.4973 4.45581 11.996C3.57581 11.4893 2.88781 10.7933 2.39181 9.908C1.90115 9.02267 1.65581 8.00933 1.65581 6.868C1.65581 5.72667 1.90115 4.716 2.39181 3.836C2.88781 2.95067 3.57581 2.25733 4.45581 1.756C5.33581 1.24933 6.35181 0.995999 7.50381 0.995999C8.36781 0.995999 9.15715 1.14 9.87181 1.428C10.5865 1.716 11.2025 2.124 11.7198 2.652C12.2371 3.17467 12.6371 3.796 12.9198 4.516C13.2025 5.23067 13.3438 6.01467 13.3438 6.868C13.3438 7.72667 13.2025 8.51333 12.9198 9.228C12.6371 9.94267 12.2371 10.564 11.7198 11.092C11.2025 11.62 10.5865 12.028 9.87181 12.316C9.15715 12.604 8.36781 12.748 7.50381 12.748ZM10.9038 8.724C10.8931 8.948 10.8158 9.19067 10.6718 9.452C10.5278 9.71333 10.3171 9.96133 10.0398 10.196C9.76248 10.4307 9.42648 10.6227 9.03181 10.772C8.63715 10.9213 8.18648 10.996 7.67981 10.996C6.87981 10.996 6.18381 10.8227 5.59181 10.476C5.00515 10.1293 4.55181 9.652 4.23181 9.044C3.91715 8.436 3.75981 7.74 3.75981 6.956C3.75981 6.14533 3.92515 5.42533 4.25581 4.796C4.59181 4.16133 5.05048 3.66267 5.63181 3.3C6.21315 2.93733 6.87181 2.756 7.60781 2.756C7.98648 2.756 8.29848 2.80133 8.54381 2.892C8.78915 2.98267 8.98381 3.07333 9.12781 3.164C9.27181 3.25467 9.38381 3.3 9.46381 3.3C9.55448 3.3 9.62648 3.268 9.67981 3.204C9.73848 3.13467 9.79448 3.068 9.84781 3.004C9.90115 2.93467 9.96515 2.9 10.0398 2.9C10.1091 2.9 10.1625 2.91867 10.1998 2.956C10.2425 2.99333 10.2771 3.06 10.3038 3.156L10.8878 5.18C10.9091 5.27067 10.8958 5.35067 10.8478 5.42C10.8051 5.484 10.7385 5.52133 10.6478 5.532C10.5571 5.548 10.4771 5.53467 10.4078 5.492C10.3385 5.44933 10.2851 5.37733 10.2478 5.276C9.96515 4.54 9.62381 4.03067 9.22381 3.748C8.82381 3.46533 8.36515 3.324 7.84781 3.324C7.39981 3.324 7.00515 3.46533 6.66381 3.748C6.32248 4.03067 6.05315 4.42533 5.85581 4.932C5.66381 5.43867 5.56781 6.028 5.56781 6.7C5.56781 7.388 5.67981 7.98267 5.90381 8.484C6.12781 8.98 6.43715 9.364 6.83181 9.636C7.23181 9.90267 7.69315 10.036 8.21581 10.036C8.62115 10.036 8.98381 9.964 9.30381 9.82C9.62381 9.67067 9.87448 9.47867 10.0558 9.244C10.2105 9.084 10.3251 8.948 10.3998 8.836C10.4745 8.71867 10.5331 8.63067 10.5758 8.572C10.6238 8.508 10.6798 8.47867 10.7438 8.484C10.8505 8.5 10.9038 8.58 10.9038 8.724Z" fill="black"/>
</svg>
